<svg xmlns="http://www.w3.org/2000/svg" viewBox="0 0 512 512">
  <defs>
    <linearGradient id="g" x1="0" x2="1" y1="0" y2="1">
      <stop offset="0%" stop-color="#134e4a"/>
      <stop offset="100%" stop-color="#0f766e"/>
    </linearGradient>
  </defs>
  <rect width="512" height="512" rx="96" fill="url(#g)"/>
  <rect x="88" y="96" width="336" height="320" rx="36" fill="white" opacity="0.96"/>
  <rect x="126" y="144" width="34" height="34" rx="8" fill="none" stroke="#0f766e" stroke-width="12"/>
  <path d="M133 161 l10 10 l20 -24" fill="none" stroke="#0f766e" stroke-width="12" stroke-linecap="round" stroke-linejoin="round"/>
  <rect x="186" y="150" width="188" height="18" rx="9" fill="#cbd5e1"/>
  <rect x="126" y="212" width="34" height="34" rx="8" fill="none" stroke="#0f766e" stroke-width="12"/>
  <path d="M133 229 l10 10 l20 -24" fill="none" stroke="#0f766e" stroke-width="12" stroke-linecap="round" stroke-linejoin="round"/>
  <rect x="186" y="218" width="188" height="18" rx="9" fill="#cbd5e1"/>
  <rect x="126" y="280" width="34" height="34" rx="8" fill="none" stroke="#0f766e" stroke-width="12"/>
  <rect x="186" y="286" width="188" height="18" rx="9" fill="#cbd5e1"/>
  <rect x="126" y="348" width="34" height="34" rx="8" fill="none" stroke="#0f766e" stroke-width="12"/>
  <rect x="186" y="354" width="188" height="18" rx="9" fill="#cbd5e1"/>
</svg>